<?xml version="1.0" encoding="utf-8"?>
<!-- Generator: Adobe Illustrator 24.3.0, SVG Export Plug-In . SVG Version: 6.00 Build 0)  -->
<svg version="1.1" id="Layer_1" xmlns="http://www.w3.org/2000/svg" xmlns:xlink="http://www.w3.org/1999/xlink" x="0px" y="0px"
	 viewBox="0 0 1024 816.8" style="enable-background:new 0 0 1024 816.8;" xml:space="preserve">
<style type="text/css">
	.st0{fill:#EB4C49;}
</style>
<g>
	<path class="st0" d="M389.1,473.7c-1.2,0-3.6,0-4.8-1.2c-2.4-2.4-3.6-4.8-3.6-8.4l22.8-131.9l-95.9-93.5c-2.4-2.4-3.6-6-2.4-8.4
		c1.2-3.6,3.6-4.8,7.2-6l131.9-19.2L503,85.2c1.2-2.4,4.8-4.8,7.2-4.8c3.6,0,6,1.2,7.2,4.8l58.8,119.9l131.9,19.2c3.6,0,6,2.4,7.2,6
		c1.2,2.4,0,6-2.4,8.4l-95.9,93.5l22.8,131.9c0,3.6-1.2,6-3.6,8.4c-1.2,1.2-3.6,1.2-4.8,1.2s-2.4,0-3.6-1.2l-117.5-62.4l-117.5,62.4
		C391.5,472.5,390.3,473.7,389.1,473.7z M457.4,217.1c-1.2,2.4-3.6,3.6-6,4.8l-119.9,18l86.4,84c2.4,2.4,2.4,4.8,2.4,7.2
		l-20.4,118.7l106.7-56.4c1.2-1.2,2.4-1.2,3.6-1.2c1.2,0,2.4,0,3.6,1.2l106.7,56.4L600.1,331c0-2.4,0-4.8,2.4-7.2l86.4-84l-119.9-18
		c-2.4,0-4.8-2.4-6-4.8l-54-107.9L457.4,217.1z"/>
	<path class="st0" d="M169.6,510.9c-1.2,0-3.6,0-4.8-1.2c-2.4-2.4-3.6-4.8-3.6-8.4l12-68.4L124,385c-2.4-2.4-3.6-6-2.4-8.4
		c1.2-3.6,3.6-4.8,7.2-6l68.4-9.6l31.2-62.4c1.2-2.4,4.8-3.6,7.2-3.6s6,1.2,7.2,3.6l31.2,62.4l68.4,9.6c3.6,0,6,2.4,7.2,6
		c1.2,2.4,0,6-2.4,8.4l-49.2,48l12,68.4c0,3.6-1.2,6-3.6,8.4c-1.2,1.2-3.6,1.2-4.8,1.2c-1.2,0-2.4,0-3.6-1.2l-61.2-32.4l-61.2,32.4
		C172,510.9,170.8,510.9,169.6,510.9z M234.3,460.5c1.2,0,2.4,0,3.6,1.2l50.4,26.4l-9.6-56.4c0-2.4,0-4.8,2.4-7.2l40.8-39.6
		l-56.4-8.4c-2.4,0-4.8-2.4-6-4.8l-25.2-50.4l-25.2,50.4c-1.2,2.4-3.6,3.6-6,4.8l-56.4,8.4l40.8,39.6c2.4,2.4,2.4,4.8,2.4,7.2
		l-9.6,56.4l50.4-26.4C231.9,461.7,233.1,460.5,234.3,460.5z"/>
	<path class="st0" d="M48.4,736.4c-1.2,0-3.6,0-4.8-1.2c-2.4-2.4-3.6-4.8-3.6-8.4l12-68.4l-49.2-48c-2.4-2.4-3.6-6-2.4-8.4
		c1.2-2.4,3.6-4.8,7.2-6l68.4-9.6l31.2-62.4c1.2-2.4,4.8-4.8,7.2-4.8c3.6,0,6,1.2,7.2,4.8l31.2,62.4l68.4,9.6c3.6,0,6,2.4,7.2,6
		c1.2,2.4,0,6-2.4,8.4l-49.2,48l12,68.4c0,3.6-1.2,6-3.6,8.4c-1.2,1.2-3.6,1.2-4.8,1.2c-1.2,0-2.4,0-3.6-1.2l-61.2-32.4l-61.2,32.4
		C52,736.4,49.6,736.4,48.4,736.4z M114.4,686c1.2,0,2.4,0,3.6,1.2l50.4,26.4l-9.6-56.4c0-2.4,0-4.8,2.4-7.2l40.8-39.6l-56.4-8.4
		c-2.4,0-4.8-2.4-6-4.8l-25.2-50.4l-25.2,50.4c-1.2,2.4-3.6,3.6-6,4.8l-56.4,8.4L67.6,650c2.4,2.4,2.4,4.8,2.4,7.2l-9.6,56.4
		l50.4-26.4C110.8,686,112,686,114.4,686z"/>
	<path class="st0" d="M720.1,510.9c-1.2,0-3.6,0-4.8-1.2c-2.4-2.4-3.6-4.8-3.6-8.4l12-68.4l-49.2-48c-2.4-2.4-3.6-6-2.4-8.4
		c1.2-2.4,3.6-4.8,7.2-6l68.4-9.6l31.2-62.4c1.2-2.4,4.8-4.8,7.2-4.8c3.6,0,6,1.2,7.2,4.8l31.2,62.4l68.4,9.6c3.6,0,6,2.4,7.2,6
		c1.2,2.4,0,6-2.4,8.4l-49.2,48l12,68.4c0,3.6-1.2,6-3.6,8.4c-1.2,1.2-3.6,1.2-4.8,1.2s-2.4,0-3.6-1.2l-61.2-32.4l-61.2,32.4
		C722.5,510.9,721.3,510.9,720.1,510.9z M759.7,373c-1.2,2.4-3.6,3.6-6,4.8l-56.4,8.4l40.8,39.6c2.4,2.4,2.4,4.8,2.4,7.2l-9.6,56.4
		l50.4-26.4c1.2-1.2,2.4-1.2,3.6-1.2c1.2,0,2.4,0,3.6,1.2l50.4,26.4l-9.6-56.4c0-2.4,0-4.8,2.4-7.2l40.8-39.6l-56.4-8.4
		c-2.4,0-4.8-2.4-6-4.8l-25.2-50.4L759.7,373z"/>
	<path class="st0" d="M842.4,736.4c-1.2,0-3.6,0-4.8-1.2c-2.4-2.4-3.6-4.8-3.6-8.4l12-68.4l-49.2-48c-2.4-2.4-3.6-6-2.4-8.4
		c1.2-2.4,3.6-4.8,7.2-6l68.4-9.6l31.2-62.4c1.2-2.4,4.8-4.8,7.2-4.8c3.6,0,6,1.2,7.2,4.8l31.2,62.4l68.4,9.6c3.6,0,6,2.4,7.2,6
		c1.2,2.4,0,6-2.4,8.4l-49.2,48l12,68.4c0,3.6-1.2,6-3.6,8.4c-1.2,1.2-3.6,1.2-4.8,1.2s-2.4,0-3.6-1.2l-61.2-32.4l-61.2,32.4
		C844.8,736.4,843.6,736.4,842.4,736.4z M907.2,686c1.2,0,2.4,0,3.6,1.2l50.4,26.4l-9.6-56.4c0-2.4,0-4.8,2.4-7.2l40.8-39.6
		l-56.4-8.4c-2.4,0-4.8-2.4-6-4.8l-25.2-50.4L882,597.3c-1.2,2.4-3.6,3.6-6,4.8l-56.4,8.4l40.8,39.6c2.4,2.4,2.4,4.8,2.4,7.2
		l-9.6,56.4l50.4-26.4C904.8,686,906,686,907.2,686z"/>
	<path class="st0" d="M763.3,687.2c-2.4,0-3.6-1.2-3.6-1.2c-57.6-80.4-148.7-127.1-248.3-127.1S320.7,605.7,263.1,686
		c0,0-1.2,1.2-3.6,1.2c-2.4,0-4.8-1.2-6-2.4c-2.4-1.2-3.6-3.6-3.6-4.8c0-1.2,0-2.4,1.2-3.6c61.2-85.2,155.9-134.3,261.5-134.3
		S712.9,591.3,774,676.4c1.2,1.2,1.2,2.4,1.2,3.6c0,2.4-2.4,3.6-3.6,4.8C766.9,687.2,764.5,687.2,763.3,687.2z"/>
</g>
</svg>
